<?xml version="1.0" encoding="UTF-8"?>
<svg width="307px" height="80px" viewBox="0 0 307 80" version="1.1" xmlns="http://www.w3.org/2000/svg" xmlns:xlink="http://www.w3.org/1999/xlink">
    <title>CapitecLogo/Horizontal/Primary/CapitecLogo_Primary_Colour</title>
    <g id="CapitecLogo/Horizontal/Primary/CapitecLogo_Primary_Colour" stroke="none" stroke-width="1" fill="none" fill-rule="evenodd">
        <g id="Logo" transform="translate(20.330000, 20.210000)" fill-rule="nonzero">
            <path d="M179.83,30.58 L185.97,30.58 L185.97,9.26 L179.83,9.26 L179.83,30.58 Z M209.83,9.28 L212.41,9.28 L212.41,11.15 L204.2,11.15 L204.2,30.62 L198.14,30.62 L198.14,11.15 L189.93,11.15 L189.93,9.28 L209.83,9.28 Z M142.83,30.62 L138.83,23.94 L130.59,23.94 L131.41,22.5 C131.580166,22.2411982 131.870284,22.0867197 132.18,22.09 L137.71,22.09 L134.2,16.19 L125.7,30.63 L122.56,30.63 L135.67,8.7 L149.34,30.62 L142.83,30.62 Z M216.37,9.28 L234.89,9.28 L234.89,11.15 L222.48,11.15 L222.48,18.3 L234.07,18.3 L234.07,20.16 L222.48,20.16 L222.48,28.79 L234.89,28.79 L234.89,30.66 L216.37,30.66 L216.37,9.28 Z M175.37,15.59 C175.37,19.06 171.9,22.06 167.06,22.06 L160,22.06 L160,21.12 C160.03178,20.5912761 160.470323,20.1790458 161,20.18 L164.2,20.18 C165.950948,20.413978 167.678638,19.6110656 168.628749,18.1218191 C169.57886,16.6325727 169.57886,14.7274273 168.628749,13.2381809 C167.678638,11.7489344 165.950948,10.946022 164.2,11.18 L159.15,11.18 L159.15,30.62 L153.04,30.62 L153.04,9.28 L167.11,9.28 C171.92,9.28 175.39,12.12 175.39,15.59 L175.37,15.59 Z M108.77,30.98 C100.43,30.98 93.53,26.67 93.53,19.98 C93.53,13.54 100.43,8.98 109.01,8.98 C113.01,8.98 116.85,9.71 119.88,12.39 L120.13,12.62 C120.25,12.74 120.41,12.89 120.54,13.03 L120.85,13.36 C120.583553,13.6743882 120.238488,13.9124827 119.85,14.05 C119.524591,14.1527884 119.175409,14.1527884 118.85,14.05 C118.472067,13.9360245 118.128418,13.7298349 117.85,13.45 C115.7769,11.5334439 113.019887,10.5315492 110.2,10.67 C104.02,10.67 100.05,14.19 100.05,20.13 C100.05,25.38 103.16,28.46 108.39,28.97 C108.929302,29.0530713 109.474347,29.0931973 110.02,29.09 C110.930999,29.0885546 111.839323,28.9913539 112.73,28.8 C113.890423,28.5889681 115.010654,28.1975623 116.05,27.64 C117.530803,26.9231689 118.822244,25.868093 119.82,24.56 L121.82,25.38 C118.78,29.67 113.67,30.98 108.77,30.98 Z M266.6,25.31 C263.6,29.67 258.4,30.98 253.55,30.98 C245.21,30.98 238.31,26.67 238.31,19.98 C238.31,13.54 245.21,8.98 253.79,8.98 C257.79,8.98 261.63,9.71 264.66,12.39 L264.91,12.62 C265.04,12.74 265.19,12.89 265.32,13.03 C265.45,13.17 265.63,13.36 265.63,13.36 C265.363553,13.6743882 265.018488,13.9124827 264.63,14.05 C264.304591,14.1527884 263.955409,14.1527884 263.63,14.05 C263.252067,13.9360245 262.908418,13.7298349 262.63,13.45 C260.5569,11.5334439 257.799887,10.5315492 254.98,10.67 C248.81,10.67 244.83,14.19 244.83,20.13 C244.83,25.38 247.94,28.46 253.17,28.97 C253.709302,29.0530713 254.254347,29.0931973 254.8,29.09 C255.710999,29.0885546 256.619323,28.9913539 257.51,28.8 C258.670847,28.5905775 259.791324,28.1990857 260.83,27.64 C262.343701,26.9125283 263.66061,25.8322509 264.67,24.49 L266.6,25.31 Z" id="Shape" fill="#363330"></path>
            <g id="Lozenge" transform="translate(0.000000, 0.000000)">
                <path d="M75.58,19.86 C75.58,29.45 68.03,38.05 58.16,39.68 L58.16,28.61 C58.1674928,23.4520292 54.0659015,19.2262817 48.91,19.08 L34.67,19.08 C30.5908906,19.0800149 27.2810246,15.7790945 27.27,11.7 L27.27,7.10542736e-15 L54.46,7.10542736e-15 C66.08,7.10542736e-15 75.58,9.1 75.58,19.86 Z" id="Path" fill="#E61414"></path>
                <path d="M43.23,20.49 L29.06,20.49 C26.6129709,20.5006292 24.2620886,19.5380496 22.525209,17.8142997 C20.7883294,16.0905499 19.8079391,13.7470393 19.8,11.3 L19.8,0 C8.8,0.62 7.10542736e-15,9.46 7.10542736e-15,19.82 C7.10542736e-15,30.58 9.49,39.67 21.1,39.67 L50.67,39.67 L50.67,27.89 C50.6590111,23.8076533 47.3523467,20.5009889 43.27,20.49" id="Path" fill="#00486D"></path>
            </g>
        </g>
    </g>
</svg>